<?xml version="1.0" encoding="UTF-8"?>
<svg xmlns="http://www.w3.org/2000/svg" xmlns:xlink="http://www.w3.org/1999/xlink" width="241.92pt" height="113.89pt" viewBox="0 0 241.92 113.89" version="1.1">
<defs>
<clipPath id="clip1">
  <path d="M 214 57 L 241.921875 57 L 241.921875 89 L 214 89 Z M 214 57 "/>
</clipPath>
<clipPath id="clip2">
  <path d="M 169 103 L 179 103 L 179 113.890625 L 169 113.890625 Z M 169 103 "/>
</clipPath>
<clipPath id="clip3">
  <path d="M 179 111 L 182 111 L 182 113.890625 L 179 113.890625 Z M 179 111 "/>
</clipPath>
<clipPath id="clip4">
  <path d="M 183 103 L 192 103 L 192 113.890625 L 183 113.890625 Z M 183 103 "/>
</clipPath>
<clipPath id="clip5">
  <path d="M 193 111 L 196 111 L 196 113.890625 L 193 113.890625 Z M 193 111 "/>
</clipPath>
<clipPath id="clip6">
  <path d="M 202 103 L 212 103 L 212 113.890625 L 202 113.890625 Z M 202 103 "/>
</clipPath>
<clipPath id="clip7">
  <path d="M 211 111 L 214 111 L 214 113.890625 L 211 113.890625 Z M 211 111 "/>
</clipPath>
<clipPath id="clip8">
  <path d="M 215 103 L 225 103 L 225 113.890625 L 215 113.890625 Z M 215 103 "/>
</clipPath>
<clipPath id="clip9">
  <path d="M 225 111 L 228 111 L 228 113.890625 L 225 113.890625 Z M 225 111 "/>
</clipPath>
<clipPath id="clip10">
  <path d="M 229 103 L 238 103 L 238 113.890625 L 229 113.890625 Z M 229 103 "/>
</clipPath>
<clipPath id="clip11">
  <path d="M 238 111 L 241 111 L 241 113.890625 L 238 113.890625 Z M 238 111 "/>
</clipPath>
</defs>
<g id="surface1">
<path style=" stroke:none;fill-rule:nonzero;fill:rgb(29.399109%,50.19989%,73.699951%);fill-opacity:1;" d="M 116.421875 87.503906 L 88.027344 87.503906 L 88.027344 48.246094 L 116.421875 48.246094 L 116.421875 55.839844 L 98.097656 55.839844 L 98.097656 62.613281 L 115.105469 62.613281 L 115.105469 70.207031 L 98.097656 70.207031 L 98.097656 79.910156 L 116.421875 79.910156 "/>
<path style=" stroke:none;fill-rule:nonzero;fill:rgb(29.399109%,50.19989%,73.699951%);fill-opacity:1;" d="M 137.8125 53.4375 L 137.101563 53.4375 C 136.679688 53.316406 136.132813 53.175781 135.457031 53.015625 C 134.78125 52.859375 134.058594 52.78125 133.289063 52.78125 C 131.429688 52.78125 130.171875 53.113281 129.515625 53.78125 C 128.859375 54.449219 128.53125 55.742188 128.53125 57.65625 L 128.53125 57.894531 L 135.832031 57.894531 L 135.832031 64.328125 L 128.847656 64.328125 L 128.847656 87.503906 L 119.328125 87.503906 L 119.328125 64.328125 L 115.265625 64.328125 L 115.265625 57.894531 L 119.328125 57.894531 L 119.328125 57.078125 C 119.328125 53.457031 120.289063 50.742188 122.214844 48.929688 C 124.140625 47.121094 127.054688 46.214844 130.957031 46.214844 C 132.363281 46.214844 133.636719 46.261719 134.777344 46.359375 C 135.921875 46.457031 136.933594 46.582031 137.8125 46.742188 "/>
<path style=" stroke:none;fill-rule:nonzero;fill:rgb(29.399109%,50.19989%,73.699951%);fill-opacity:1;" d="M 149.171875 87.503906 L 139.652344 87.503906 L 139.652344 57.894531 L 149.171875 57.894531 Z M 149.4375 53.675781 L 139.390625 53.675781 L 139.390625 46.476563 L 149.4375 46.476563 Z M 149.4375 53.675781 "/>
<path style=" stroke:none;fill-rule:nonzero;fill:rgb(29.399109%,50.19989%,73.699951%);fill-opacity:1;" d="M 172.191406 78.171875 L 172.191406 64.75 C 171.648438 64.523438 170.984375 64.339844 170.195313 64.210938 C 169.402344 64.078125 168.695313 64.011719 168.0625 64.011719 C 165.570313 64.011719 163.703125 64.730469 162.460938 66.160156 C 161.214844 67.59375 160.589844 69.59375 160.589844 72.160156 C 160.589844 75.007813 161.121094 76.992188 162.183594 78.117188 C 163.242188 79.242188 164.816406 79.804688 166.90625 79.804688 C 167.851563 79.804688 168.78125 79.65625 169.691406 79.359375 C 170.605469 79.058594 171.4375 78.664063 172.191406 78.171875 M 181.710938 84.105469 C 181.710938 86.882813 181.316406 89.21875 180.523438 91.117188 C 179.734375 93.015625 178.628906 94.5 177.203125 95.574219 C 175.777344 96.664063 174.058594 97.449219 172.046875 97.933594 C 170.035156 98.417969 167.761719 98.660156 165.230469 98.660156 C 163.175781 98.660156 161.148438 98.535156 159.152344 98.289063 C 157.160156 98.042969 155.433594 97.746094 153.972656 97.394531 L 153.972656 89.984375 L 155.132813 89.984375 C 156.289063 90.441406 157.703125 90.859375 159.371094 91.234375 C 161.039063 91.613281 162.53125 91.804688 163.847656 91.804688 C 165.601563 91.804688 167.027344 91.640625 168.125 91.316406 C 169.222656 90.988281 170.058594 90.527344 170.640625 89.929688 C 171.183594 89.367188 171.578125 88.648438 171.824219 87.769531 C 172.070313 86.890625 172.191406 85.835938 172.191406 84.605469 L 172.191406 84.050781 C 171.050781 84.984375 169.789063 85.722656 168.402344 86.265625 C 167.015625 86.8125 165.46875 87.082031 163.765625 87.082031 C 159.621094 87.082031 156.425781 85.835938 154.179688 83.339844 C 151.933594 80.84375 150.808594 77.046875 150.808594 71.949219 C 150.808594 69.503906 151.152344 67.394531 151.835938 65.621094 C 152.519531 63.84375 153.484375 62.296875 154.734375 60.980469 C 155.890625 59.75 157.316406 58.792969 159.011719 58.105469 C 160.707031 57.421875 162.441406 57.078125 164.214844 57.078125 C 165.8125 57.078125 167.265625 57.265625 168.570313 57.644531 C 169.878906 58.023438 171.070313 58.546875 172.140625 59.214844 L 172.484375 57.894531 L 181.710938 57.894531 "/>
<path style=" stroke:none;fill-rule:nonzero;fill:rgb(29.399109%,50.19989%,73.699951%);fill-opacity:1;" d="M 202.773438 79.761719 L 202.773438 73.609375 C 201.492188 73.714844 200.101563 73.859375 198.609375 74.042969 C 197.113281 74.226563 195.980469 74.441406 195.207031 74.6875 C 194.257813 74.984375 193.53125 75.417969 193.03125 75.988281 C 192.53125 76.558594 192.28125 77.308594 192.28125 78.234375 C 192.28125 78.847656 192.332031 79.347656 192.4375 79.734375 C 192.542969 80.117188 192.808594 80.488281 193.230469 80.835938 C 193.632813 81.1875 194.117188 81.445313 194.679688 81.613281 C 195.242188 81.78125 196.121094 81.863281 197.316406 81.863281 C 198.265625 81.863281 199.226563 81.671875 200.203125 81.285156 C 201.179688 80.898438 202.035156 80.390625 202.773438 79.761719 M 202.773438 84.367188 C 202.265625 84.753906 201.632813 85.21875 200.875 85.765625 C 200.121094 86.308594 199.40625 86.738281 198.738281 87.058594 C 197.808594 87.480469 196.839844 87.789063 195.839844 87.992188 C 194.835938 88.195313 193.738281 88.296875 192.542969 88.296875 C 189.730469 88.296875 187.375 87.425781 185.476563 85.6875 C 183.578125 83.945313 182.628906 81.722656 182.628906 79.015625 C 182.628906 76.851563 183.113281 75.085938 184.078125 73.714844 C 185.046875 72.34375 186.417969 71.261719 188.191406 70.472656 C 189.949219 69.679688 192.128906 69.117188 194.730469 68.785156 C 197.335938 68.449219 200.03125 68.203125 202.828125 68.046875 L 202.828125 67.886719 C 202.828125 66.253906 202.160156 65.125 200.824219 64.5 C 199.488281 63.875 197.519531 63.5625 194.917969 63.5625 C 193.351563 63.5625 191.683594 63.839844 189.90625 64.394531 C 188.132813 64.949219 186.855469 65.375 186.085938 65.671875 L 185.214844 65.671875 L 185.214844 58.527344 C 186.214844 58.265625 187.84375 57.953125 190.105469 57.589844 C 192.363281 57.230469 194.628906 57.050781 196.894531 57.050781 C 202.289063 57.050781 206.1875 57.882813 208.585938 59.542969 C 210.988281 61.203125 212.1875 63.808594 212.1875 67.359375 L 212.1875 87.503906 L 202.773438 87.503906 "/>
<g clip-path="url(#clip1)" clip-rule="nonzero">
<path style=" stroke:none;fill-rule:nonzero;fill:rgb(29.399109%,50.19989%,73.699951%);fill-opacity:1;" d="M 241.925781 78.117188 C 241.925781 81.175781 240.554688 83.640625 237.8125 85.515625 C 235.070313 87.386719 231.316406 88.324219 226.554688 88.324219 C 223.914063 88.324219 221.527344 88.078125 219.382813 87.585938 C 217.238281 87.09375 215.515625 86.546875 214.214844 85.949219 L 214.214844 78.144531 L 215.082031 78.144531 C 215.558594 78.480469 216.105469 78.84375 216.730469 79.238281 C 217.355469 79.632813 218.238281 80.058594 219.382813 80.515625 C 220.363281 80.921875 221.480469 81.269531 222.730469 81.558594 C 223.976563 81.847656 225.3125 81.996094 226.738281 81.996094 C 228.601563 81.996094 229.980469 81.789063 230.878906 81.375 C 231.773438 80.960938 232.222656 80.351563 232.222656 79.542969 C 232.222656 78.820313 231.957031 78.300781 231.429688 77.972656 C 230.902344 77.648438 229.902344 77.335938 228.425781 77.039063 C 227.722656 76.878906 226.769531 76.707031 225.5625 76.523438 C 224.359375 76.339844 223.265625 76.113281 222.28125 75.851563 C 219.59375 75.148438 217.597656 74.054688 216.296875 72.566406 C 214.996094 71.082031 214.34375 69.234375 214.34375 67.015625 C 214.34375 64.171875 215.695313 61.800781 218.390625 59.910156 C 221.089844 58.023438 224.777344 57.078125 229.453125 57.078125 C 231.667969 57.078125 233.789063 57.300781 235.820313 57.75 C 237.851563 58.199219 239.4375 58.675781 240.578125 59.1875 L 240.578125 66.675781 L 239.761719 66.675781 C 238.355469 65.707031 236.753906 64.921875 234.949219 64.316406 C 233.148438 63.707031 231.324219 63.40625 229.480469 63.40625 C 227.949219 63.40625 226.664063 63.617188 225.617188 64.039063 C 224.570313 64.460938 224.046875 65.058594 224.046875 65.832031 C 224.046875 66.535156 224.285156 67.070313 224.761719 67.441406 C 225.234375 67.808594 226.351563 68.179688 228.109375 68.546875 C 229.074219 68.742188 230.117188 68.929688 231.234375 69.113281 C 232.347656 69.296875 233.46875 69.53125 234.59375 69.8125 C 237.089844 70.464844 238.9375 71.488281 240.132813 72.882813 C 241.328125 74.28125 241.925781 76.027344 241.925781 78.117188 "/>
</g>
<g clip-path="url(#clip2)" clip-rule="nonzero">
<path style=" stroke:none;fill-rule:nonzero;fill:rgb(29.399109%,50.19989%,73.699951%);fill-opacity:1;" d="M 173.476563 113.890625 C 172.84375 113.890625 172.242188 113.824219 171.667969 113.691406 C 171.09375 113.558594 170.53125 113.351563 169.980469 113.078125 L 170.296875 111.589844 L 170.390625 111.589844 C 170.808594 111.988281 171.324219 112.292969 171.933594 112.503906 C 172.542969 112.714844 173.132813 112.820313 173.699219 112.820313 C 174.632813 112.820313 175.347656 112.636719 175.84375 112.265625 C 176.339844 111.898438 176.585938 111.425781 176.585938 110.855469 C 176.585938 110.550781 176.5 110.300781 176.320313 110.101563 C 176.144531 109.898438 175.886719 109.75 175.542969 109.652344 C 175.257813 109.574219 174.921875 109.5 174.53125 109.425781 C 174.140625 109.355469 173.765625 109.277344 173.414063 109.195313 C 172.726563 109.042969 172.195313 108.777344 171.820313 108.40625 C 171.441406 108.035156 171.253906 107.574219 171.253906 107.023438 C 171.253906 106.09375 171.648438 105.316406 172.4375 104.699219 C 173.226563 104.078125 174.246094 103.769531 175.496094 103.769531 C 176.179688 103.769531 176.800781 103.839844 177.355469 103.984375 C 177.914063 104.125 178.394531 104.292969 178.796875 104.484375 L 178.5 105.882813 L 178.410156 105.882813 C 178.097656 105.597656 177.65625 105.351563 177.082031 105.148438 C 176.507813 104.941406 175.902344 104.839844 175.269531 104.839844 C 174.472656 104.839844 173.835938 105.015625 173.363281 105.363281 C 172.886719 105.714844 172.652344 106.15625 172.652344 106.695313 C 172.652344 106.984375 172.738281 107.238281 172.90625 107.457031 C 173.078125 107.675781 173.382813 107.839844 173.820313 107.949219 C 174.097656 108.015625 174.46875 108.09375 174.933594 108.1875 C 175.398438 108.28125 175.785156 108.371094 176.101563 108.453125 C 176.722656 108.621094 177.191406 108.878906 177.515625 109.214844 C 177.835938 109.550781 177.996094 109.976563 177.996094 110.488281 C 177.996094 110.914063 177.890625 111.339844 177.683594 111.765625 C 177.472656 112.191406 177.179688 112.550781 176.804688 112.855469 C 176.402344 113.179688 175.929688 113.429688 175.390625 113.613281 C 174.851563 113.796875 174.210938 113.890625 173.476563 113.890625 "/>
</g>
<g clip-path="url(#clip3)" clip-rule="nonzero">
<path style=" stroke:none;fill-rule:nonzero;fill:rgb(29.399109%,50.19989%,73.699951%);fill-opacity:1;" d="M 181.144531 113.714844 L 179.5625 113.714844 L 179.996094 111.84375 L 181.578125 111.84375 Z M 181.144531 113.714844 "/>
</g>
<g clip-path="url(#clip4)" clip-rule="nonzero">
<path style=" stroke:none;fill-rule:nonzero;fill:rgb(29.399109%,50.19989%,73.699951%);fill-opacity:1;" d="M 190.0625 109.902344 L 189.441406 105.097656 L 186.613281 109.902344 Z M 191.84375 113.714844 L 190.527344 113.714844 L 190.195313 110.972656 L 185.992188 110.972656 L 184.390625 113.714844 L 183.015625 113.714844 L 188.828125 103.949219 L 190.546875 103.949219 "/>
</g>
<g clip-path="url(#clip5)" clip-rule="nonzero">
<path style=" stroke:none;fill-rule:nonzero;fill:rgb(29.399109%,50.19989%,73.699951%);fill-opacity:1;" d="M 195.0625 113.714844 L 193.484375 113.714844 L 193.914063 111.84375 L 195.496094 111.84375 Z M 195.0625 113.714844 "/>
</g>
<g clip-path="url(#clip6)" clip-rule="nonzero">
<path style=" stroke:none;fill-rule:nonzero;fill:rgb(29.399109%,50.19989%,73.699951%);fill-opacity:1;" d="M 211.300781 103.949219 L 211.042969 105.050781 L 205.90625 105.050781 L 205.273438 107.8125 L 210.414063 107.8125 L 210.15625 108.914063 L 205.019531 108.914063 L 204.167969 112.613281 L 209.304688 112.613281 L 209.050781 113.714844 L 202.617188 113.714844 L 204.863281 103.949219 "/>
</g>
<g clip-path="url(#clip7)" clip-rule="nonzero">
<path style=" stroke:none;fill-rule:nonzero;fill:rgb(29.399109%,50.19989%,73.699951%);fill-opacity:1;" d="M 212.964844 113.714844 L 211.382813 113.714844 L 211.816406 111.84375 L 213.398438 111.84375 Z M 212.964844 113.714844 "/>
</g>
<g clip-path="url(#clip8)" clip-rule="nonzero">
<path style=" stroke:none;fill-rule:nonzero;fill:rgb(29.399109%,50.19989%,73.699951%);fill-opacity:1;" d="M 219.234375 113.890625 C 218.597656 113.890625 217.996094 113.824219 217.421875 113.691406 C 216.851563 113.558594 216.289063 113.351563 215.738281 113.078125 L 216.050781 111.589844 L 216.144531 111.589844 C 216.5625 111.988281 217.078125 112.292969 217.6875 112.503906 C 218.296875 112.714844 218.886719 112.820313 219.457031 112.820313 C 220.386719 112.820313 221.101563 112.636719 221.597656 112.265625 C 222.09375 111.898438 222.339844 111.425781 222.339844 110.855469 C 222.339844 110.550781 222.253906 110.300781 222.074219 110.101563 C 221.898438 109.898438 221.640625 109.75 221.296875 109.652344 C 221.015625 109.574219 220.675781 109.5 220.285156 109.425781 C 219.894531 109.355469 219.519531 109.277344 219.167969 109.195313 C 218.480469 109.042969 217.949219 108.777344 217.574219 108.40625 C 217.199219 108.035156 217.007813 107.574219 217.007813 107.023438 C 217.007813 106.09375 217.402344 105.316406 218.191406 104.699219 C 218.980469 104.078125 220.003906 103.769531 221.253906 103.769531 C 221.933594 103.769531 222.554688 103.839844 223.113281 103.984375 C 223.671875 104.125 224.148438 104.292969 224.550781 104.484375 L 224.257813 105.882813 L 224.164063 105.882813 C 223.855469 105.597656 223.410156 105.351563 222.835938 105.148438 C 222.261719 104.941406 221.65625 104.839844 221.023438 104.839844 C 220.226563 104.839844 219.59375 105.015625 219.117188 105.363281 C 218.644531 105.714844 218.40625 106.15625 218.40625 106.695313 C 218.40625 106.984375 218.492188 107.238281 218.664063 107.457031 C 218.832031 107.675781 219.136719 107.839844 219.574219 107.949219 C 219.855469 108.015625 220.226563 108.09375 220.6875 108.1875 C 221.152344 108.28125 221.542969 108.371094 221.855469 108.453125 C 222.476563 108.621094 222.949219 108.878906 223.269531 109.214844 C 223.589844 109.550781 223.753906 109.976563 223.753906 110.488281 C 223.753906 110.914063 223.648438 111.339844 223.4375 111.765625 C 223.226563 112.191406 222.933594 112.550781 222.558594 112.855469 C 222.15625 113.179688 221.683594 113.429688 221.144531 113.613281 C 220.605469 113.796875 219.96875 113.890625 219.234375 113.890625 "/>
</g>
<g clip-path="url(#clip9)" clip-rule="nonzero">
<path style=" stroke:none;fill-rule:nonzero;fill:rgb(29.399109%,50.19989%,73.699951%);fill-opacity:1;" d="M 226.898438 113.714844 L 225.316406 113.714844 L 225.75 111.84375 L 227.332031 111.84375 Z M 226.898438 113.714844 "/>
</g>
<g clip-path="url(#clip10)" clip-rule="nonzero">
<path style=" stroke:none;fill-rule:nonzero;fill:rgb(29.399109%,50.19989%,73.699951%);fill-opacity:1;" d="M 236.453125 106.519531 C 236.453125 106.296875 236.414063 106.089844 236.34375 105.894531 C 236.265625 105.703125 236.152344 105.546875 235.992188 105.421875 C 235.808594 105.277344 235.585938 105.175781 235.328125 105.113281 C 235.074219 105.046875 234.742188 105.015625 234.332031 105.015625 L 233.121094 105.015625 L 232.199219 108.996094 L 233.363281 108.996094 C 233.886719 108.996094 234.324219 108.949219 234.671875 108.851563 C 235.015625 108.757813 235.316406 108.605469 235.570313 108.394531 C 235.867188 108.144531 236.085938 107.867188 236.234375 107.554688 C 236.378906 107.246094 236.453125 106.898438 236.453125 106.519531 M 236.515625 109.0625 C 236.113281 109.394531 235.664063 109.644531 235.167969 109.808594 C 234.671875 109.972656 234.074219 110.054688 233.378906 110.054688 L 231.953125 110.054688 L 231.109375 113.714844 L 229.796875 113.714844 L 232.050781 103.949219 L 234.617188 103.949219 C 235.214844 103.949219 235.703125 104 236.09375 104.105469 C 236.480469 104.210938 236.800781 104.359375 237.050781 104.558594 C 237.308594 104.753906 237.503906 104.992188 237.640625 105.277344 C 237.773438 105.558594 237.84375 105.898438 237.84375 106.296875 C 237.84375 106.828125 237.726563 107.335938 237.496094 107.8125 C 237.265625 108.292969 236.9375 108.707031 236.515625 109.0625 "/>
</g>
<g clip-path="url(#clip11)" clip-rule="nonzero">
<path style=" stroke:none;fill-rule:nonzero;fill:rgb(29.399109%,50.19989%,73.699951%);fill-opacity:1;" d="M 239.75 113.714844 L 238.167969 113.714844 L 238.601563 111.84375 L 240.183594 111.84375 Z M 239.75 113.714844 "/>
</g>
<path style=" stroke:none;fill-rule:nonzero;fill:rgb(61.999512%,75.698853%,10.998535%);fill-opacity:1;" d="M 56.015625 15.660156 C 51.648438 18.425781 47.167969 22.03125 42.832031 26.1875 C 49.171875 33.847656 56.03125 40.921875 56.015625 55.605469 C 55.996094 74.671875 44.757813 103.539063 34.683594 102.113281 C 51.683594 105.660156 66.347656 88.324219 70.050781 75.007813 C 78.648438 44.078125 45.683594 42.328125 56.015625 15.660156 "/>
<path style=" stroke:none;fill-rule:nonzero;fill:rgb(29.399109%,50.19989%,73.699951%);fill-opacity:1;" d="M 25.632813 47.089844 C 30.511719 39.496094 36.515625 32.25 42.832031 26.1875 C 37.398438 19.617188 32.347656 12.613281 32.347656 -0.00390625 C 23.347656 11.46875 15.394531 25.699219 10.453125 39.878906 C 14.65625 43.964844 20.144531 45.371094 25.632813 47.089844 "/>
<path style=" stroke:none;fill-rule:nonzero;fill:rgb(39.199829%,74.499512%,71.398926%);fill-opacity:1;" d="M 56.015625 55.605469 C 56.03125 40.921875 49.171875 33.851563 42.832031 26.1875 C 36.515625 32.25 30.511719 39.496094 25.632813 47.089844 C 33.054688 49.410156 40.480469 52.308594 44.765625 63.160156 C 52.265625 82.160156 44.335938 98.078125 34.683594 102.113281 C 44.757813 103.539063 55.996094 74.671875 56.015625 55.605469 "/>
<path style=" stroke:none;fill-rule:nonzero;fill:rgb(61.999512%,75.698853%,10.998535%);fill-opacity:1;" d="M 10.453125 39.882813 C 8.175781 37.667969 6.273438 34.671875 4.949219 30.410156 C -8.234375 85.410156 6.015625 114.105469 34.683594 102.113281 C 2.84375 97.613281 0.359375 68.859375 10.453125 39.882813 "/>
<path style=" stroke:none;fill-rule:nonzero;fill:rgb(39.199829%,74.499512%,71.398926%);fill-opacity:1;" d="M 25.632813 47.089844 C 20.144531 45.371094 14.65625 43.964844 10.453125 39.878906 C 0.359375 68.859375 2.84375 97.613281 34.683594 102.113281 C 6.394531 96.210938 10.867188 70.070313 25.632813 47.089844 "/>
<path style=" stroke:none;fill-rule:nonzero;fill:rgb(100%,100%,100%);fill-opacity:1;" d="M 44.765625 63.160156 C 40.480469 52.308594 33.054688 49.410156 25.632813 47.089844 C 10.867188 70.070313 6.394531 96.210938 34.683594 102.113281 C 44.335938 98.078125 52.265625 82.160156 44.765625 63.160156 "/>
<path style=" stroke:none;fill-rule:nonzero;fill:rgb(29.399109%,50.19989%,73.699951%);fill-opacity:1;" d="M 33.714844 73.226563 C 32.757813 82.808594 36.839844 94.351563 34.683594 102.113281 C 26.515625 97.410156 30.160156 75.238281 33.714844 73.226563 "/>
</g>
</svg>
